<svg xmlns="http://www.w3.org/2000/svg" viewBox="0 0 600 600" xml:space="preserve"><linearGradient id="a" x1="190.586" x2="292.982" y1="120.874" y2="483.525" gradientUnits="userSpaceOnUse"><stop offset="0" style="stop-color:#f4f4f4"/><stop offset=".928" style="stop-color:#919395"/></linearGradient><path fill="url(#a)" d="m539.347 459.984-40.85 48.577a252.169 252.169 0 0 1-34.709 34.013c-.024.012-.036.012-.048.024-32.788 26.43-72.872 45.182-118.282 53.184-119.637 21.104-240.018-38.74-302.045-140.237-15.548-25.422-27.426-53.46-34.708-83.49-6.85-28.23-9.166-56.207-7.39-83.2C4.962 232.85 26.149 181.07 60.653 140.026l40.84-48.59c-38.512 45.819-60.42 105.002-59.891 168.48.156 20.827 2.735 42.122 7.942 63.55 8.338 34.372 22.699 66.14 41.667 94.359C155 512.689 271.003 567.528 386.297 547.205c63.034-11.122 115.799-42.927 153.05-87.22z"/><linearGradient id="b" x1="24.18" x2="103.549" y1="136.992" y2="291.951" gradientUnits="userSpaceOnUse"><stop offset="0" style="stop-color:#cfd0d2"/><stop offset="1" style="stop-color:#808082;stop-opacity:0"/></linearGradient><path fill="url(#b)" d="M101.493 91.437c-38.511 45.818-60.418 105-59.89 168.479a38785.935 38785.935 0 0 0-40.288 28.937C4.963 232.85 26.15 181.07 60.655 140.026l40.838-48.589z"/><linearGradient id="c" x1="226.373" x2="323.074" y1="265.835" y2="551.334" gradientUnits="userSpaceOnUse"><stop offset="0" style="stop-color:#e5e6e7;stop-opacity:0"/><stop offset=".928" style="stop-color:#272525"/></linearGradient><path fill="url(#c)" d="m539.348 459.984-40.85 48.577c-30.414 36.184-71.193 64.03-119.458 79.074-10.822 3.384-22.027 6.107-33.58 8.146-65.71 11.59-131.648-1.235-188.011-31.972-46.262-25.219-86.081-62.519-114.035-108.264 14.48-11.434 30.99-24.427 47.798-37.72 28.901 42.986 68.528 77.755 113.95 101.03 54.816 28.097 118.078 39.459 181.136 28.35 15.717-2.772 30.797-6.827 45.158-12.058 43.227-15.705 79.927-41.919 107.892-75.163z"/><linearGradient id="d" x1="266.579" x2="303.723" y1="440.772" y2="585.632" gradientUnits="userSpaceOnUse"><stop offset="0" style="stop-color:#c0c2c4;stop-opacity:0"/><stop offset=".928" style="stop-color:#515152"/></linearGradient><path fill="url(#d)" d="m431.456 535.147-52.416 52.488c-10.822 3.384-22.027 6.107-33.58 8.146-65.71 11.59-131.648-1.235-188.011-31.972l47.713-44.954c54.816 28.097 118.078 39.459 181.136 28.35 15.717-2.772 30.797-6.827 45.158-12.058z"/><linearGradient id="e" x1="171.145" x2="211.728" y1="597.955" y2="477.474" gradientUnits="userSpaceOnUse"><stop offset=".036" style="stop-color:#59595b"/><stop offset="1" style="stop-color:#9ea0a2;stop-opacity:0"/></linearGradient><path fill="url(#e)" d="M463.74 542.598c-32.788 26.43-72.872 45.182-118.282 53.184-119.637 21.104-240.018-38.74-302.045-140.237-15.548-25.422-27.426-53.46-34.708-83.49-6.85-28.23-9.166-56.207-7.39-83.2 0 0-4.142 223.628 227.85 290.783 98.793 28.598 175.992 1.591 234.575-37.04z"/><linearGradient id="f" x1="391.184" x2="192.854" y1="71.99" y2="642.987" gradientUnits="userSpaceOnUse"><stop offset="0" style="stop-color:#cfd0d2"/><stop offset=".928" style="stop-color:#808082"/></linearGradient><path fill="url(#f)" d="M579.672 393.446a267.793 267.793 0 0 1-4.332 9.886c-33.892 73.196-101.581 128.444-189.042 143.872-149.595 26.37-300.365-73.795-336.753-223.738-13.365-55.08-9.442-109.224 8.302-156.986 12.597-33.916 32.165-64.617 57.455-90.16 36.016-36.387 83.634-62.302 139.23-72.104C404.137-22.166 554.908 78 591.296 227.943c14.169 58.391 8.902 115.702-11.625 165.503z"/><linearGradient id="g" x1="422.221" x2="296.679" y1="-10.487" y2="342.507" gradientUnits="userSpaceOnUse"><stop offset="0" style="stop-color:#fff"/><stop offset="1" style="stop-color:#a5a7a9;stop-opacity:0"/></linearGradient><path fill="url(#g)" d="M582.67 385.816c-.959 2.555-1.955 5.11-2.998 7.63C508.335 120.206 275.13 51.126 57.847 166.48c0 0 .012-.035.048-.107 12.585-33.869 32.14-64.534 57.407-90.053 36.016-36.387 83.634-62.302 139.23-72.104C404.137-22.166 554.908 78 591.296 227.943c13.449 55.428 9.382 109.884-8.626 157.873z"/><linearGradient id="h" x1="391.521" x2="324.619" y1="22.735" y2="262.365" gradientUnits="userSpaceOnUse"><stop offset="0" style="stop-color:#eaebec"/><stop offset="1" style="stop-color:#a5a7a9;stop-opacity:0"/></linearGradient><path fill="url(#h)" d="M582.67 385.816c37.157-105.037-37.083-342.608-238.458-363.532C140.82 1.157 60.222 161.658 57.895 166.373c12.585-33.869 32.14-64.534 57.407-90.053 36.016-36.387 83.634-62.302 139.23-72.104C404.137-22.166 554.908 78 591.296 227.943c13.449 55.428 9.382 109.884-8.626 157.873z"/><linearGradient id="i" x1="358.077" x2="166.123" y1="137.704" y2="818.951" gradientUnits="userSpaceOnUse"><stop offset="0" style="stop-color:#f0f1f1;stop-opacity:0"/><stop offset=".928" style="stop-color:#6d6e70"/></linearGradient><path fill="url(#i)" d="M575.34 403.332a250.989 250.989 0 0 1-11.709 22.303c-41.21 59.351-182.3 177.273-358.025 80.334C-.784 392.115 57.223 168.94 57.883 166.396c.012-.012.012-.023.012-.023 12.597-33.881 32.153-64.534 57.407-90.053-29.31 171.802 74.588 295.387 210.662 255.748 141.532-41.223 240.786-6.587 249.376 71.264z"/><linearGradient id="j" x1="311.595" x2="293.712" y1="591.659" y2="571.093" gradientTransform="rotate(-.865 -352.074 487.907)" gradientUnits="userSpaceOnUse"><stop offset="0" style="stop-color:#babcbe;stop-opacity:0"/><stop offset=".928" style="stop-color:#424243"/></linearGradient><path fill="url(#j)" d="m302.671 549.083-21.405 34.926 29.478-33.707-1.889-11.281z"/><linearGradient id="k" x1="318.944" x2="273.015" y1="552.616" y2="586.81" gradientTransform="rotate(-.865 -352.074 487.907)" gradientUnits="userSpaceOnUse"><stop offset="0" style="stop-color:#cfd0d2"/><stop offset=".928" style="stop-color:#808082"/></linearGradient><path fill="url(#k)" d="m315.313 550.397-34.047 33.612 29.478-33.707-1.889-11.281z"/><linearGradient id="l" x1="45.738" x2="50.472" y1="335.839" y2="355.383" gradientUnits="userSpaceOnUse"><stop offset="0" style="stop-color:#babcbe;stop-opacity:0"/><stop offset=".928" style="stop-color:#424243"/></linearGradient><path fill="url(#l)" d="m56.529 347.627-24.956 27.327 27.643-20.183 13.21-6.353z"/><linearGradient id="m" x1="52.892" x2="51.032" y1="350.024" y2="374.319" gradientUnits="userSpaceOnUse"><stop offset="0" style="stop-color:#fff"/><stop offset="1" style="stop-color:#a5a7a9;stop-opacity:0"/></linearGradient><path fill="url(#m)" d="m59.981 357.145-28.408 17.809 27.643-20.183 13.21-6.353z"/><linearGradient id="n" x1="134.808" x2="139.325" y1="467.57" y2="486.216" gradientUnits="userSpaceOnUse"><stop offset="0" style="stop-color:#babcbe;stop-opacity:0"/><stop offset=".928" style="stop-color:#424243"/></linearGradient><path fill="url(#n)" d="m145.682 478.676-22.845 25.837 26.476-22.36 8.455-6.162z"/><linearGradient id="o" x1="141.241" x2="139.286" y1="477.987" y2="503.538" gradientUnits="userSpaceOnUse"><stop offset="0" style="stop-color:#fff"/><stop offset="1" style="stop-color:#a5a7a9;stop-opacity:0"/></linearGradient><path fill="url(#o)" d="m153.112 485.391-30.275 19.122 26.476-22.36 8.455-6.162z"/><linearGradient id="p" x1="50.04" x2="30.795" y1="369.657" y2="332.449" gradientUnits="userSpaceOnUse"><stop offset="0" style="stop-color:#babcbe;stop-opacity:0"/><stop offset=".928" style="stop-color:#424243"/></linearGradient><path fill="url(#p)" d="m48.916 321.251-38.277 46.726 40.817-37.917 13.551-5.963z"/><linearGradient id="q" x1="34.981" x2="39.79" y1="330.267" y2="356.952" gradientUnits="userSpaceOnUse"><stop offset="0" style="stop-color:#fff"/><stop offset="1" style="stop-color:#a5a7a9;stop-opacity:0"/></linearGradient><path fill="url(#q)" d="m10.639 367.977 41.696-34.197 12.672-9.683-13.551 5.963z"/><linearGradient id="r" x1="271.534" x2="74.73" y1="113.142" y2="811.604" gradientUnits="userSpaceOnUse"><stop offset="0" style="stop-color:#f0f1f1;stop-opacity:0"/><stop offset=".928" style="stop-color:#6d6e70"/></linearGradient><path fill="url(#r)" d="M227.264 189.338c-76.02-25.48-65.293 71.367 10.63 95.663s89.796-62.005-10.63-95.663z"/><linearGradient id="s" x1="508.739" x2="205.825" y1="-120.101" y2="506.762" gradientUnits="userSpaceOnUse"><stop offset="0" style="stop-color:#f0f1f1;stop-opacity:0"/><stop offset=".928" style="stop-color:#6d6e70"/></linearGradient><path fill="url(#s)" d="M454.913 136.087c-.732-.672-1.547-1.224-2.291-1.884a247.903 247.903 0 0 0-16.665-13.64 265.51 265.51 0 0 0-4.726-3.468 239.927 239.927 0 0 0-18.057-11.661c-1.14-.672-2.231-1.38-3.37-2.04a240.138 240.138 0 0 0-47.666-20.491c-.66-.204-1.332-.348-2.016-.564a235.886 235.886 0 0 0-22.219-5.411c-1.68-.276-3.215-.564-4.799-.768a232.425 232.425 0 0 0-19.903-2.495c-1.98-.168-3.948-.36-5.94-.456-6.526-.348-12.956-.372-19.483-.144-1.98.06-3.947.012-5.938.12a205.404 205.404 0 0 0-24.823 2.831 201.043 201.043 0 0 0-24.115 5.807c-1.86.564-3.659 1.272-5.506 1.883-6.095 2.004-12.058 4.211-17.816 6.719-1.776.768-3.504 1.608-5.243 2.423a196.06 196.06 0 0 0-17.097 9.034c-1.415.804-2.699 1.572-4.043 2.328a203.59 203.59 0 0 0-17.888 12.477c-.516.42-1.08.792-1.583 1.212a200.269 200.269 0 0 0-34.36 34.948c-.745.984-1.416 2.004-2.148 3.011a184.446 184.446 0 0 0-11.146 16.809 205.969 205.969 0 0 0-2.723 4.787 197.468 197.468 0 0 0-8.95 18.152c-.372.852-.876 1.631-1.308 2.951a202.28 202.28 0 0 0-9.598 29.01c-.216.815-.42 1.643-.612 2.46-18.2 76.662 8.243 161.027 71.12 218.747.732.672 1.56 1.223 2.292 1.883a244.123 244.123 0 0 0 16.664 13.63 344.469 344.469 0 0 0 4.74 3.479 244.87 244.87 0 0 0 18.055 11.66c1.128.673 2.22 1.38 3.372 2.04a239.591 239.591 0 0 0 47.653 20.48c.66.204 1.344.36 2.028.564a231.415 231.415 0 0 0 22.219 5.423c1.68.275 3.215.563 4.787.767a237.615 237.615 0 0 0 19.915 2.508c1.968.156 3.947.348 5.927.444 6.526.348 12.957.36 19.484.144 1.991-.06 3.959-.024 5.95-.12 8.362-.456 16.653-1.404 24.823-2.844s16.22-3.37 24.103-5.794c1.871-.576 3.67-1.272 5.506-1.884 6.095-2.015 12.07-4.211 17.828-6.718 1.776-.768 3.504-1.608 5.231-2.424a199.4 199.4 0 0 0 17.108-9.034c1.416-.804 2.7-1.584 4.032-2.327a199.44 199.44 0 0 0 17.888-12.49c.527-.42 1.08-.791 1.595-1.2a200.57 200.57 0 0 0 34.217-34.924c.743-.983 1.415-2.003 2.147-3.011a180.246 180.246 0 0 0 11.134-16.808 212.49 212.49 0 0 0 2.735-4.787 200.545 200.545 0 0 0 8.95-18.152c.372-.852.876-1.644 1.308-2.951l.252-.612c34.696-83.994 10.293-184.016-61.03-249.63zm36.076 224.086c-26.586-7.93-53.94-12.105-81.222-12.417a293.56 293.56 0 0 0-4.619-56.076l92.404-16.292c4.523 28.806 2.28 57.827-6.563 84.785zm-23.91 47.366a168.567 168.567 0 0 1-9.406 12.021c-.444.516-.9 1.032-1.344 1.548-.432.48-.864.96-1.296 1.427a170.768 170.768 0 0 1-10.833 11.026l-2.64 2.423a173.345 173.345 0 0 1-12.525 10.114c-.804.576-1.572 1.2-2.352 1.776a160.725 160.725 0 0 1-14.168 8.938c-.72.444-1.392.9-2.196 1.332-4.919 2.735-10.006 5.182-15.225 7.522-.827.36-1.583.768-2.423 1.116-1.992.84-4.127 1.44-6.179 2.207a374.725 374.725 0 0 0 18.356-68.013 380.282 380.282 0 0 0 3.12-21.907c23.766.06 47.63 3.287 70.94 9.586-.324.6-.696 1.188-1.032 1.8-2.627 4.75-5.435 9.393-8.47 13.844-.756 1.104-1.56 2.16-2.327 3.24zm-146.152 73.004h-.6c-.408 0-.816.012-1.224.024-1.631.036-3.263.12-4.883.048-.923-.048-1.811-.18-2.723-.228-5.855-.324-11.685-.84-17.48-1.752-.888-.132-1.776-.324-2.64-.468a219.443 219.443 0 0 1-17.168-3.431c-.996-.252-1.98-.564-2.987-.828a216.622 216.622 0 0 1-16.208-5.05l-3.552-1.332a205.249 205.249 0 0 1-15.068-6.443c-1.272-.6-2.532-1.164-3.804-1.848a155.448 155.448 0 0 1-14.24-7.858c-1.2-.732-2.436-1.416-3.636-2.183-4.847-3.06-9.585-6.371-14.228-9.838-.588-.456-1.2-.876-1.788-1.296 18.464-13.665 38.86-24.69 60.647-32.789a438.797 438.797 0 0 0 61.498 75.188l.084.084zM377.89 348.08c-17.756.996-35.368 3.011-52.728 6.083-.228.036-.456.072-.684.12-.228.036-.444.072-.672.12a435.864 435.864 0 0 0-51.288 12.26c-8.327-15.368-15.177-31.432-20.432-47.94-.012-.037-.012-.06-.012-.06l115.403-20.348 6.898-1.212c.528 3.12.984 6.25 1.404 9.382v.012a261.252 261.252 0 0 1 2.111 41.583zm-2.4 31.853c-4.114 30.377-11.985 59.915-23.442 87.952a417.412 417.412 0 0 1-62.506-72.823 400.097 400.097 0 0 1 42.422-9.886 398.332 398.332 0 0 1 43.527-5.243zm69.07-211.07c20.659 21.752 36.232 47.63 45.481 75.596l-92.403 16.292c-5.59-18.212-12.921-35.98-21.871-53.028 24.906-9.514 48.073-22.591 68.793-38.86zm-139.841-64.63c.911.049 1.811.193 2.723.24 5.855.325 11.685.84 17.48 1.752.888.132 1.776.312 2.64.468 5.77.912 11.48 2.052 17.168 3.42.995.264 1.98.575 2.987.84a216.58 216.58 0 0 1 16.208 5.05l3.54 1.32a198.484 198.484 0 0 1 15.08 6.455c1.272.6 2.544 1.163 3.815 1.847a156.876 156.876 0 0 1 14.23 7.858c1.199.72 2.423 1.416 3.622 2.172 4.871 3.071 9.598 6.383 14.241 9.85.588.456 1.2.864 1.788 1.295l-.024.024c-18.452 13.653-38.848 24.667-60.623 32.753a435.676 435.676 0 0 0-58.187-71.852 13.961 13.961 0 0 0-.42-.432c-.12-.132-.264-.276-.396-.408-.12-.132-.252-.264-.384-.396-.251-.264-.491-.504-.707-.72-.276-.263-.54-.54-.816-.803-.372-.372-.588-.576-.648-.636l-.024-.024c2.243.012 4.475-.156 6.707-.072zm-37.828 12.742c23.599 21.835 44.606 46.298 62.506 72.812a402.075 402.075 0 0 1-42.447 9.874 413.602 413.602 0 0 1-43.502 5.267c4.115-30.378 11.985-59.915 23.443-87.953zm-25.842 119.806a448.433 448.433 0 0 0 36.196-3.492 419.906 419.906 0 0 0 16.544-2.591c.216-.036.444-.084.672-.12a437.714 437.714 0 0 0 51.948-12.465 279.444 279.444 0 0 1 20.456 48.073l-122.301 21.56c-.468-2.808-.9-5.615-1.284-8.435a260.634 260.634 0 0 1-2.231-42.53zm-99.986-42.387c2.627-4.751 5.434-9.394 8.47-13.845.756-1.104 1.56-2.147 2.327-3.227a172.125 172.125 0 0 1 9.406-12.022c.864-1.02 1.776-1.931 2.64-2.987a173.708 173.708 0 0 1 10.833-11.014l2.64-2.423a172.926 172.926 0 0 1 12.525-10.126c.804-.576 1.572-1.187 2.351-1.763a163.694 163.694 0 0 1 14.17-8.95c.72-.432 1.39-.888 2.195-1.32 4.919-2.735 10.006-5.183 15.224-7.522.816-.36 1.584-.78 2.424-1.128 2.003-.828 4.127-1.44 6.179-2.196 0 0 0 .012-.013.048a.746.746 0 0 0-.036.12c-10.761 28.758-17.948 58.883-21.439 89.764-23.755-.06-47.617-3.287-70.916-9.561-.012-.012-.024-.012-.024-.012.336-.624.708-1.212 1.044-1.836zm-21.476 99.302c-1.68-23.55 1.128-46.982 8.363-69.009a299.026 299.026 0 0 0 39.987 8.998 292.275 292.275 0 0 0 41.235 3.408c-.228 15.704.84 31.48 3.155 47.185.444 2.963.936 5.927 1.464 8.89l-74.6 13.161h-.012l-17.792 3.132a184.795 184.795 0 0 1-1.8-15.765zm101.702 30.401c5.603 18.224 12.933 35.992 21.883 53.04-24.906 9.502-48.073 22.592-68.793 38.86-20.66-21.751-36.232-47.63-45.494-75.607l92.404-16.293z"/><linearGradient id="t" x1="399.734" x2="274.156" y1="40.352" y2="381.396" gradientUnits="userSpaceOnUse"><stop offset="0" style="stop-color:#3999bf"/><stop offset="1" style="stop-color:#296996"/></linearGradient><path fill="url(#t)" d="M315.484 87.248c.91.048 1.814.183 2.725.232 5.845.325 11.68.844 17.48 1.757.883.128 1.77.314 2.64.465a222.76 222.76 0 0 1 17.164 3.425c.992.262 1.985.572 2.985.831a216.474 216.474 0 0 1 16.215 5.056l3.54 1.32c5.1 1.94 10.129 4.089 15.077 6.452 1.273.602 2.536 1.166 3.808 1.843a158.44 158.44 0 0 1 14.236 7.862c1.196.72 2.428 1.423 3.625 2.18 4.862 3.061 9.594 6.374 14.234 9.845.593.456 1.202.86 1.792 1.298l16.817-20.006c-.59-.437-1.199-.841-1.793-1.297-4.64-3.471-9.372-6.784-14.234-9.846-1.197-.756-2.428-1.46-3.624-2.179a158.438 158.438 0 0 0-14.236-7.862c-1.272-.677-2.535-1.242-3.808-1.843a199.27 199.27 0 0 0-15.077-6.452l-3.54-1.32a216.443 216.443 0 0 0-16.215-5.056c-1-.26-1.994-.569-2.985-.831a222.788 222.788 0 0 0-17.165-3.425c-.87-.152-1.757-.337-2.64-.465-5.798-.914-11.634-1.432-17.479-1.758-.91-.048-1.815-.183-2.726-.232-2.228-.09-4.47.077-6.705.073L308.778 87.32c2.235.004 4.477-.163 6.706-.072z"/><linearGradient id="u" x1="497.3" x2="371.722" y1="76.278" y2="417.322" gradientUnits="userSpaceOnUse"><stop offset="0" style="stop-color:#3999bf"/><stop offset="1" style="stop-color:#296996"/></linearGradient><path fill="url(#u)" d="M386.527 190.731c24.914-9.508 48.08-22.588 68.795-38.862 20.664 21.75 36.235 47.635 45.484 75.602l16.817-20.005c-9.25-27.967-24.82-53.852-45.485-75.602-20.714 16.274-43.88 29.354-68.794 38.862l-16.817 20.005z"/><linearGradient id="v" x1="355.051" x2="229.473" y1="23.899" y2="364.943" gradientUnits="userSpaceOnUse"><stop offset="0" style="stop-color:#3999bf"/><stop offset="1" style="stop-color:#296996"/></linearGradient><path fill="url(#v)" d="m340.156 172.803 16.817-20.006c-17.9-26.517-38.902-50.98-62.504-72.82l-16.816 20.005c23.601 21.84 44.602 46.303 62.503 72.82z"/><linearGradient id="w" x1="543.023" x2="417.445" y1="93.114" y2="434.158" gradientUnits="userSpaceOnUse"><stop offset="0" style="stop-color:#3999bf"/><stop offset="1" style="stop-color:#296996"/></linearGradient><path fill="url(#w)" d="m525.127 238.388-92.404 16.294-16.817 20.005 92.404-16.293c4.53 28.809 2.285 57.834-6.56 84.788l16.817-20.005c8.845-26.954 11.09-55.98 6.56-84.789z"/><linearGradient id="x" x1="290.158" x2="164.579" y1=".004" y2="341.048" gradientUnits="userSpaceOnUse"><stop offset="0" style="stop-color:#3999bf"/><stop offset="1" style="stop-color:#296996"/></linearGradient><path fill="url(#x)" d="M238.54 168.812c3.493-30.945 10.71-61.132 21.491-89.937l-16.816 20.006c-10.782 28.804-17.999 58.991-21.491 89.936l16.816-20.005z"/><linearGradient id="y" x1="428.242" x2="302.664" y1="50.849" y2="391.893" gradientUnits="userSpaceOnUse"><stop offset="0" style="stop-color:#3999bf"/><stop offset="1" style="stop-color:#296996"/></linearGradient><path fill="url(#y)" d="M401.952 260.108 279.65 281.673l-16.817 20.005 122.302-21.565c2.846 16.95 4.025 34.022 3.518 50.974l16.817-20.005c.506-16.952-.673-34.025-3.518-50.974z"/><linearGradient id="z" x1="261.456" x2="135.878" y1="-10.564" y2="330.48" gradientUnits="userSpaceOnUse"><stop offset="0" style="stop-color:#3999bf"/><stop offset="1" style="stop-color:#296996"/></linearGradient><path fill="url(#z)" d="m174.523 145.505.16-.19c3.44-3.829 7.05-7.498 10.823-11.006l2.632-2.42a173.033 173.033 0 0 1 12.531-10.124c.798-.577 1.566-1.196 2.354-1.772a163.806 163.806 0 0 1 14.16-8.95c.73-.432 1.394-.89 2.2-1.317 4.921-2.738 10.009-5.182 15.226-7.525.813-.352 1.58-.782 2.417-1.12 2.003-.836 4.138-1.44 6.189-2.2l16.816-20.006c-2.05.76-4.185 1.365-6.188 2.202-.837.337-1.604.767-2.417 1.12-5.217 2.342-10.305 4.786-15.227 7.524-.805.427-1.47.884-2.199 1.317a163.812 163.812 0 0 0-14.16 8.95c-.788.575-1.556 1.195-2.354 1.772-4.34 3.185-8.52 6.56-12.531 10.124l-2.632 2.42a172.306 172.306 0 0 0-10.837 11.02l-.174.207c-.817.968-1.66 1.824-2.463 2.772-.346.403-.69.808-1.03 1.215L171 149.523c.342-.407.685-.811 1.03-1.215.814-.958 1.667-1.822 2.492-2.803z"/><linearGradient id="A" x1="557.733" x2="432.155" y1="98.53" y2="439.574" gradientUnits="userSpaceOnUse"><stop offset="0" style="stop-color:#3999bf"/><stop offset="1" style="stop-color:#296996"/></linearGradient><path fill="url(#A)" d="M480.164 387.31c-.747 1.099-1.557 2.163-2.32 3.236a167.021 167.021 0 0 1-8.235 10.64l16.817-20.006a167.012 167.012 0 0 0 8.235-10.64c.762-1.072 1.573-2.137 2.32-3.236 3.04-4.445 5.851-9.089 8.476-13.84.333-.618.701-1.206 1.03-1.804-23.316-6.3-47.171-9.524-70.941-9.584l-16.817 20.005c23.77.06 47.626 3.284 70.941 9.584-.329.598-.697 1.186-1.03 1.804-2.625 4.752-5.436 9.395-8.476 13.84z"/><linearGradient id="B" x1="391.983" x2="266.404" y1="37.498" y2="378.542" gradientUnits="userSpaceOnUse"><stop offset="0" style="stop-color:#3999bf"/><stop offset="1" style="stop-color:#296996"/></linearGradient><path fill="url(#B)" d="m304.546 213.709.678-.12a438.678 438.678 0 0 0 51.946-12.463 278.477 278.477 0 0 1 20.46 48.064l16.817-20.005a278.479 278.479 0 0 0-20.46-48.064 438.677 438.677 0 0 1-51.947 12.463l-.677.12a447.683 447.683 0 0 1-52.734 6.08l-16.817 20.006a447.672 447.672 0 0 0 52.734-6.081z"/><linearGradient id="C" x1="404.431" x2="278.854" y1="42.085" y2="383.125" gradientUnits="userSpaceOnUse"><stop offset="0" style="stop-color:#3999bf"/><stop offset="1" style="stop-color:#296996"/></linearGradient><path fill="url(#C)" d="m511.227 402.24-16.82 20a199.873 199.873 0 0 1-28.446 27.726c-.516.42-1.068.792-1.596 1.2a196.834 196.834 0 0 1-17.876 12.489c-1.344.756-2.627 1.535-4.043 2.327-5.483 3.263-11.194 6.263-17.096 9.034-1.74.816-3.468 1.656-5.243 2.424-5.759 2.52-11.734 4.703-17.828 6.718-1.836.612-3.635 1.32-5.507 1.896a200.262 200.262 0 0 1-24.103 5.795 205.956 205.956 0 0 1-24.822 2.83c-1.992.109-3.96.06-5.939.133-6.538.204-12.957.204-19.484-.144-1.991-.108-3.959-.288-5.938-.456a233.299 233.299 0 0 1-19.916-2.507c-1.572-.204-3.107-.48-4.787-.768a232.296 232.296 0 0 1-22.219-5.423c-.684-.192-1.368-.348-2.015-.564a235.347 235.347 0 0 1-21.332-7.654 240.207 240.207 0 0 1-26.334-12.825c-1.14-.648-2.231-1.356-3.371-2.028a245.02 245.02 0 0 1-18.056-11.673 342.514 342.514 0 0 1-4.74-3.468 241.223 241.223 0 0 1-16.651-13.64c-.744-.648-1.572-1.212-2.292-1.884-30.701-28.17-52.716-62.698-65.085-99.59-16.509-49.177-15.873-102.553 4.163-150.615.443-1.32.947-2.1 1.32-2.963a200.46 200.46 0 0 1 8.937-18.152c.9-1.608 1.8-3.203 2.736-4.775a179.75 179.75 0 0 1 11.145-16.82c.732-1.008 1.392-2.016 2.148-3.012a196.848 196.848 0 0 1 5.626-7.006l16.809-20a211.306 211.306 0 0 0-5.627 7.007c-.744.983-1.416 2.003-2.147 3.011a184.45 184.45 0 0 0-11.146 16.808 205.936 205.936 0 0 0-2.723 4.787 197.464 197.464 0 0 0-8.95 18.152c-.372.852-.876 1.632-1.308 2.952-20.036 48.073-20.672 101.437-4.163 150.614 12.357 36.892 34.372 71.42 65.073 99.602.732.672 1.56 1.224 2.292 1.884a244.12 244.12 0 0 0 16.664 13.629 344.283 344.283 0 0 0 4.74 3.479 244.866 244.866 0 0 0 18.055 11.661c1.128.672 2.22 1.38 3.371 2.04a242.409 242.409 0 0 0 26.335 12.825 238.836 238.836 0 0 0 21.319 7.654c.66.204 1.344.36 2.027.564a231.42 231.42 0 0 0 22.22 5.423c1.68.276 3.215.564 4.786.768a237.615 237.615 0 0 0 19.916 2.507c1.968.156 3.947.348 5.927.444 6.526.348 12.957.36 19.483.144 1.992-.06 3.96-.024 5.951-.12 8.362-.456 16.652-1.403 24.823-2.843s16.22-3.371 24.102-5.795c1.872-.576 3.671-1.272 5.507-1.883 6.095-2.016 12.07-4.211 17.828-6.719 1.776-.768 3.503-1.608 5.231-2.423a199.41 199.41 0 0 0 17.108-9.034c1.416-.804 2.7-1.584 4.031-2.328a199.44 199.44 0 0 0 17.888-12.49c.528-.419 1.08-.79 1.596-1.199a201.157 201.157 0 0 0 28.446-27.726z"/><linearGradient id="D" x1="218.66" x2="163.665" y1="238.17" y2="504.777" gradientUnits="userSpaceOnUse"><stop offset="0" style="stop-color:#2f789e;stop-opacity:0"/><stop offset="1" style="stop-color:#183861"/></linearGradient><path fill="url(#D)" d="m263.038 457.296-16.82 20a240.207 240.207 0 0 1-26.335-12.825c-1.14-.648-2.231-1.356-3.371-2.028a245.02 245.02 0 0 1-18.056-11.673 342.514 342.514 0 0 1-4.74-3.468 241.223 241.223 0 0 1-16.651-13.64c-.744-.648-1.572-1.212-2.292-1.884-30.701-28.17-52.716-62.698-65.085-99.59l16.82-20.012c12.357 36.892 34.372 71.42 65.073 99.602.732.672 1.56 1.224 2.292 1.884a244.12 244.12 0 0 0 16.664 13.629 344.283 344.283 0 0 0 4.74 3.479 244.866 244.866 0 0 0 18.055 11.661c1.128.672 2.22 1.38 3.371 2.04a242.409 242.409 0 0 0 26.335 12.825z"/><linearGradient id="E" x1="277.198" x2="151.62" y1="-4.767" y2="336.276" gradientUnits="userSpaceOnUse"><stop offset="0" style="stop-color:#3999bf"/><stop offset="1" style="stop-color:#296996"/></linearGradient><path fill="url(#E)" d="M236.751 200.1c-27.285-.303-54.641-4.485-81.219-12.41l-16.817 20.005c26.578 7.925 53.934 12.107 81.22 12.411l2.311-2.75-2.311 2.75c-.27 18.675 1.279 37.457 4.613 56.077l16.817-20.005c-3.334-18.62-4.882-37.402-4.614-56.077z"/><linearGradient id="F" x1="465.279" x2="339.701" y1="64.487" y2="405.531" gradientUnits="userSpaceOnUse"><stop offset="0" style="stop-color:#3999bf"/><stop offset="1" style="stop-color:#296996"/></linearGradient><path fill="url(#F)" d="M379.631 430.89c11.459-28.041 19.327-57.575 23.438-87.955a400.824 400.824 0 0 0-43.529 5.243 397.643 397.643 0 0 0-42.413 9.892l-16.817 20.005a397.669 397.669 0 0 1 42.413-9.892 400.832 400.832 0 0 1 43.53-5.243c-4.112 30.38-11.98 59.914-23.439 87.955l16.817-20.005z"/><linearGradient id="G" x1="322.922" x2="197.343" y1="12.069" y2="353.113" gradientUnits="userSpaceOnUse"><stop offset="0" style="stop-color:#3999bf"/><stop offset="1" style="stop-color:#296996"/></linearGradient><path fill="url(#G)" d="m253.938 360.145 16.817-20.005c-8.947-17.05-16.278-34.813-21.886-53.04l-92.403 16.293-16.816 20.005 92.402-16.293c5.608 18.227 12.939 35.99 21.886 53.04z"/><linearGradient id="H" x1="420.493" x2="294.915" y1="47.996" y2="389.04" gradientUnits="userSpaceOnUse"><stop offset="0" style="stop-color:#3999bf"/><stop offset="1" style="stop-color:#296996"/></linearGradient><path fill="url(#H)" d="m331.688 463.557 16.816-20.005c-23.303-22.794-43.97-48.065-61.574-75.271-21.791 8.094-42.19 19.12-60.652 32.778l-16.817 20.005c18.462-13.657 38.86-24.684 60.652-32.778 17.605 27.207 38.272 52.477 61.575 75.271z"/><linearGradient id="I" x1="358.153" x2="406.473" y1="117.14" y2="69.357" gradientUnits="userSpaceOnUse"><stop offset="0" style="stop-color:#2f789e;stop-opacity:0"/><stop offset="1" style="stop-color:#183861"/></linearGradient><path fill="url(#I)" d="m413.94 88.63-16.82 20c-1.272-.673-2.532-1.236-3.815-1.848a192.364 192.364 0 0 0-10.822-4.775 207.386 207.386 0 0 0-4.247-1.668l-3.54-1.32a212.794 212.794 0 0 0-16.22-5.063c-.995-.251-1.991-.563-2.987-.827l16.82-20.012c.996.264 1.98.576 2.988.84a212.78 212.78 0 0 1 11.83 3.551c1.463.48 2.926.984 4.378 1.5l3.54 1.32c1.427.54 2.843 1.103 4.246 1.68 3.66 1.475 7.27 3.07 10.834 4.774 1.272.6 2.543 1.164 3.815 1.848z"/><linearGradient id="J" x1="357.639" x2="405.959" y1="116.621" y2="68.838" gradientUnits="userSpaceOnUse"><stop offset="0" style="stop-color:#2f789e;stop-opacity:0"/><stop offset="1" style="stop-color:#183861"/></linearGradient><path fill="url(#J)" d="m399.291 82.007-16.808 20a207.386 207.386 0 0 0-4.247-1.668l-3.54-1.32a235.487 235.487 0 0 0-4.39-1.511l16.82-20c1.464.48 2.927.984 4.38 1.5l3.538 1.32c1.428.54 2.844 1.103 4.247 1.68z"/><linearGradient id="K" x1="400.771" x2="447.804" y1="202.386" y2="134.726" gradientUnits="userSpaceOnUse"><stop offset="0" style="stop-color:#2f789e;stop-opacity:0"/><stop offset="1" style="stop-color:#183861"/></linearGradient><path fill="url(#K)" d="m472.138 131.864-16.817 20.005c-20.714 16.274-43.88 29.354-68.794 38.862l16.817-20.005c24.914-9.508 48.08-22.588 68.794-38.862z"/><linearGradient id="L" x1="298.479" x2="326.533" y1="180.12" y2="100.084" gradientUnits="userSpaceOnUse"><stop offset="0" style="stop-color:#2f789e;stop-opacity:0"/><stop offset="1" style="stop-color:#183861"/></linearGradient><path fill="url(#L)" d="m356.977 152.792-16.82 20.011a414.32 414.32 0 0 0-29.478-38.571 417.685 417.685 0 0 0-33.029-34.253l16.82-20a418.269 418.269 0 0 1 33.137 34.349 415.903 415.903 0 0 1 29.37 38.464z"/><linearGradient id="M" x1="336.627" x2="308.174" y1="168.517" y2="117.163" gradientUnits="userSpaceOnUse"><stop offset="0" style="stop-color:#2f789e"/><stop offset="1" style="stop-color:#1f4e73"/></linearGradient><path fill="url(#M)" d="m327.607 114.328-16.928 19.904a417.685 417.685 0 0 0-33.029-34.253l16.82-20a418.269 418.269 0 0 1 33.137 34.349z"/><linearGradient id="N" x1="426.64" x2="477.798" y1="323.767" y2="245.38" gradientUnits="userSpaceOnUse"><stop offset="0" style="stop-color:#2f789e;stop-opacity:0"/><stop offset="1" style="stop-color:#183861"/></linearGradient><path fill="url(#N)" d="m525.127 238.388-16.817 20.006-92.404 16.293 16.817-20.005z"/><linearGradient id="O" x1="212.4" x2="246.122" y1="153.036" y2="80.502" gradientUnits="userSpaceOnUse"><stop offset="0" style="stop-color:#2f789e;stop-opacity:0"/><stop offset="1" style="stop-color:#183861"/></linearGradient><path fill="url(#O)" d="m260.031 78.875-16.816 20.006c-2.051.76-4.186 1.364-6.19 2.2-.836.338-1.603.768-2.416 1.12-5.217 2.343-10.304 4.787-15.227 7.525L236.2 89.72c4.922-2.738 10.01-5.182 15.227-7.525.813-.352 1.58-.782 2.417-1.12 2.003-.836 4.137-1.44 6.188-2.2z"/><linearGradient id="P" x1="195.413" x2="229.135" y1="145.138" y2="72.604" gradientUnits="userSpaceOnUse"><stop offset="0" style="stop-color:#2f789e;stop-opacity:0"/><stop offset="1" style="stop-color:#183861"/></linearGradient><path fill="url(#P)" d="m234 91.038-16.817 20.005a163.794 163.794 0 0 0-14.16 8.95c-.788.576-1.556 1.195-2.354 1.772-4.34 3.186-8.52 6.56-12.531 10.124l16.817-20.005a173.017 173.017 0 0 1 12.531-10.124c.798-.577 1.566-1.197 2.354-1.772a163.79 163.79 0 0 1 14.16-8.95z"/><linearGradient id="Q" x1="354.306" x2="306.386" y1="240.711" y2="194.122" gradientUnits="userSpaceOnUse"><stop offset="0" style="stop-color:#2f789e;stop-opacity:0"/><stop offset="1" style="stop-color:#183861"/></linearGradient><path fill="url(#Q)" d="m373.987 181.121-16.817 20.005a438.677 438.677 0 0 1-51.946 12.463l-.678.12a447.681 447.681 0 0 1-52.734 6.08l16.817-20.004a447.686 447.686 0 0 0 52.734-6.081l.677-.12a438.679 438.679 0 0 0 51.947-12.463z"/><linearGradient id="R" x1="557.733" x2="432.155" y1="98.53" y2="439.574" gradientUnits="userSpaceOnUse"><stop offset="0" style="stop-color:#2f789e;stop-opacity:0"/><stop offset="1" style="stop-color:#183861"/></linearGradient><path fill="url(#R)" d="m506.487 351.66-16.817 20.005c-23.315-6.3-47.171-9.524-70.941-9.584l16.817-20.005c23.77.06 47.625 3.284 70.94 9.584z"/><linearGradient id="S" x1="281.845" x2="349.505" y1="320.961" y2="267.328" gradientUnits="userSpaceOnUse"><stop offset="0" style="stop-color:#2f789e;stop-opacity:0"/><stop offset="1" style="stop-color:#183861"/></linearGradient><path fill="url(#S)" d="m401.952 260.108-16.817 20.005-122.302 21.565 16.817-20.005z"/><linearGradient id="T" x1="153.082" x2="190.512" y1="243.572" y2="200.716" gradientUnits="userSpaceOnUse"><stop offset="0" style="stop-color:#2f789e;stop-opacity:0"/><stop offset="1" style="stop-color:#183861"/></linearGradient><path fill="url(#T)" d="m236.751 200.1-16.816 20.006c-27.286-.304-54.642-4.486-81.22-12.41l16.817-20.006c26.578 7.925 53.934 12.107 81.22 12.41z"/><linearGradient id="U" x1="461.237" x2="335.658" y1="62.999" y2="404.043" gradientUnits="userSpaceOnUse"><stop offset="0" style="stop-color:#2f789e;stop-opacity:0"/><stop offset="1" style="stop-color:#183861"/></linearGradient><path fill="url(#U)" d="m403.07 342.935-16.817 20.005c-14.648.955-29.183 2.713-43.53 5.243s-28.505 5.83-42.413 9.892l16.817-20.005a397.663 397.663 0 0 1 42.413-9.892 400.835 400.835 0 0 1 43.53-5.243z"/><linearGradient id="V" x1="304.686" x2="179.108" y1="5.354" y2="346.398" gradientUnits="userSpaceOnUse"><stop offset="0" style="stop-color:#2f789e;stop-opacity:0"/><stop offset="1" style="stop-color:#183861"/></linearGradient><path fill="url(#V)" d="m248.869 287.1-16.817 20.005-92.402 16.293 16.816-20.005z"/><linearGradient id="W" x1="519.465" x2="393.887" y1="84.439" y2="425.483" gradientUnits="userSpaceOnUse"><stop offset="0" style="stop-color:#2f789e;stop-opacity:0"/><stop offset="1" style="stop-color:#183861"/></linearGradient><path fill="url(#W)" d="m459.265 445.981-16.816 20.005a199.558 199.558 0 0 1-17.104 9.032c-1.733.818-3.462 1.654-5.235 2.422-5.762 2.516-11.735 4.708-17.827 6.72-1.84.61-3.638 1.316-5.506 1.893a201.419 201.419 0 0 1-24.105 5.794 206.164 206.164 0 0 1-24.825 2.834c-1.99.103-3.961.062-5.944.126-6.528.213-12.958.208-19.481-.142-1.985-.105-3.962-.288-5.933-.453a235.557 235.557 0 0 1-19.913-2.505l16.817-20.005a235.581 235.581 0 0 0 19.913 2.505c1.971.165 3.947.348 5.932.453 6.524.35 12.954.355 19.482.142 1.983-.064 3.953-.023 5.944-.126a206.151 206.151 0 0 0 24.825-2.834 201.424 201.424 0 0 0 24.105-5.794c1.868-.577 3.665-1.283 5.506-1.892 6.092-2.013 12.065-4.205 17.827-6.721 1.773-.768 3.502-1.604 5.235-2.422a199.575 199.575 0 0 0 17.103-9.032z"/><linearGradient id="X" x1="381.178" x2="255.6" y1="33.52" y2="374.564" gradientUnits="userSpaceOnUse"><stop offset="0" style="stop-color:#2f789e;stop-opacity:0"/><stop offset="1" style="stop-color:#183861"/></linearGradient><path fill="url(#X)" d="m286.93 368.281-16.817 20.005c-21.791 8.094-42.19 19.121-60.652 32.778l16.817-20.005c18.462-13.657 38.86-24.684 60.652-32.778z"/><linearGradient id="Y" x1="398.618" x2="251.029" y1="78.615" y2="501.962" gradientUnits="userSpaceOnUse"><stop offset="0" style="stop-color:#50bfec"/><stop offset="1" style="stop-color:#3f8ac0"/></linearGradient><path fill="url(#Y)" d="M482.492 99.092c-.732-.672-1.548-1.224-2.291-1.884a247.96 247.96 0 0 0-16.665-13.64 265.184 265.184 0 0 0-4.727-3.468 239.92 239.92 0 0 0-18.056-11.661c-1.14-.672-2.231-1.38-3.37-2.04a240.14 240.14 0 0 0-47.666-20.491c-.66-.204-1.332-.348-2.016-.564a235.892 235.892 0 0 0-22.219-5.41c-1.68-.277-3.215-.565-4.799-.769a232.396 232.396 0 0 0-19.904-2.495c-1.98-.168-3.947-.36-5.938-.456-6.527-.348-12.957-.372-19.484-.144-1.98.06-3.947.012-5.939.12a205.404 205.404 0 0 0-24.822 2.831 201.044 201.044 0 0 0-24.115 5.807c-1.86.564-3.659 1.272-5.507 1.884-6.094 2.003-12.057 4.21-17.816 6.718-1.775.768-3.503 1.608-5.242 2.424a196.06 196.06 0 0 0-17.097 9.034c-1.415.804-2.7 1.571-4.043 2.327a203.58 203.58 0 0 0-17.888 12.477c-.516.42-1.08.792-1.583 1.212a200.26 200.26 0 0 0-34.36 34.948c-.745.984-1.417 2.004-2.148 3.012a184.462 184.462 0 0 0-11.146 16.808 206.192 206.192 0 0 0-2.723 4.787 197.466 197.466 0 0 0-8.95 18.152c-.372.852-.876 1.632-1.308 2.951a202.3 202.3 0 0 0-9.598 29.01c-.216.816-.42 1.643-.612 2.46-18.2 76.662 8.242 161.028 71.12 218.747.732.672 1.56 1.224 2.292 1.884a244.16 244.16 0 0 0 16.664 13.628 344.012 344.012 0 0 0 4.74 3.48 244.884 244.884 0 0 0 18.055 11.661c1.128.672 2.22 1.38 3.371 2.04a239.592 239.592 0 0 0 47.654 20.48c.66.203 1.344.36 2.028.563a231.42 231.42 0 0 0 22.219 5.423c1.68.276 3.215.564 4.786.768a237.615 237.615 0 0 0 19.916 2.507c1.968.156 3.947.348 5.927.444 6.526.348 12.957.36 19.483.144 1.992-.06 3.96-.024 5.951-.12a208.423 208.423 0 0 0 24.823-2.843 200.26 200.26 0 0 0 24.102-5.795c1.872-.576 3.672-1.272 5.507-1.884 6.095-2.015 12.07-4.21 17.828-6.718 1.776-.768 3.503-1.608 5.231-2.424a199.399 199.399 0 0 0 17.108-9.034c1.416-.803 2.7-1.583 4.031-2.327a199.433 199.433 0 0 0 17.888-12.49c.528-.42 1.08-.791 1.596-1.2a200.565 200.565 0 0 0 34.216-34.923c.744-.984 1.416-2.004 2.148-3.012a180.256 180.256 0 0 0 11.134-16.808c.935-1.596 1.847-3.18 2.735-4.787a200.497 200.497 0 0 0 8.95-18.152c.372-.852.876-1.644 1.308-2.951l.252-.612c34.696-83.994 10.293-184.015-61.03-249.629zM330.15 67.227a42.68 42.68 0 0 1 2.147.012c.912.048 1.812.192 2.724.24 5.854.324 11.685.84 17.48 1.752.888.132 1.775.312 2.64.468 3.718.587 7.414 1.271 11.085 2.051 2.04.42 4.055.876 6.082 1.368.996.264 1.98.576 2.988.84a216.616 216.616 0 0 1 16.208 5.05l3.54 1.32a198.475 198.475 0 0 1 15.08 6.455c1.272.6 2.544 1.164 3.815 1.847a156.858 156.858 0 0 1 14.23 7.859c1.199.72 2.423 1.415 3.622 2.171 4.871 3.072 9.598 6.383 14.241 9.85.588.456 1.2.864 1.788 1.296l-.024.024c-18.452 13.653-38.848 24.666-60.623 32.752a435.67 435.67 0 0 0-58.187-71.852 14.03 14.03 0 0 0-.42-.432c-.12-.132-.264-.275-.396-.407-.12-.132-.252-.264-.384-.396-.252-.264-.492-.504-.708-.72-.275-.264-.54-.54-.815-.804-.372-.372-.588-.576-.648-.636l-.024-.024c1.523.012 3.035-.072 4.559-.084zM294.47 79.98c23.598 21.835 44.606 46.298 62.506 72.812a402.066 402.066 0 0 1-42.447 9.874 413.586 413.586 0 0 1-43.502 5.267c4.115-30.377 11.985-59.915 23.443-87.953zm-25.843 119.806a448.405 448.405 0 0 0 36.196-3.491 419.933 419.933 0 0 0 16.545-2.592c.216-.036.444-.084.672-.12a437.71 437.71 0 0 0 51.948-12.465 279.44 279.44 0 0 1 20.456 48.073l-122.301 21.56c-.468-2.808-.9-5.615-1.284-8.435a260.628 260.628 0 0 1-2.232-42.53zm-99.985-42.387c2.627-4.75 5.434-9.394 8.47-13.845.755-1.103 1.56-2.147 2.327-3.227a172.113 172.113 0 0 1 9.406-12.021c.864-1.02 1.776-1.932 2.64-2.988a173.687 173.687 0 0 1 10.833-11.013l2.64-2.424a172.864 172.864 0 0 1 12.525-10.125c.804-.576 1.571-1.188 2.351-1.764a147.126 147.126 0 0 1 3.156-2.184h.012c3.575-2.4 7.246-4.643 11.001-6.766.72-.432 1.392-.888 2.196-1.32a146.132 146.132 0 0 1 4.679-2.495c3.443-1.764 6.958-3.42 10.545-5.027.816-.36 1.584-.78 2.424-1.128 2.003-.828 4.127-1.44 6.178-2.195 0 0 0 .012-.012.048-.012.024-.024.072-.036.12-10.761 28.757-17.948 58.882-21.439 89.764-23.755-.06-47.617-3.288-70.916-9.562-.012-.012-.024-.012-.024-.012.336-.624.708-1.212 1.044-1.836zm-21.476 99.302c-1.68-23.55 1.128-46.981 8.362-69.008a299.051 299.051 0 0 0 39.988 8.998 292.288 292.288 0 0 0 41.234 3.407c-.227 15.704.84 31.48 3.156 47.185.444 2.964.936 5.927 1.463 8.89l-74.599 13.161h-.012l-17.792 3.132a184.798 184.798 0 0 1-1.8-15.765zm54.792 122.301c-20.66-21.751-36.232-47.63-45.494-75.607l92.404-16.292c5.603 18.223 12.933 35.992 21.883 53.04-24.907 9.502-48.073 22.59-68.793 38.86zm145.948 64.546c-.408 0-.816.012-1.224.024-1.632.036-3.263.12-4.883.048-.924-.048-1.811-.18-2.723-.228-5.855-.324-11.686-.84-17.48-1.752-.888-.132-1.776-.324-2.64-.468a219.443 219.443 0 0 1-17.168-3.43c-.996-.253-1.98-.565-2.987-.829a216.584 216.584 0 0 1-16.209-5.05l-3.55-1.332a205.241 205.241 0 0 1-15.07-6.443c-1.271-.6-2.531-1.164-3.803-1.847a155.47 155.47 0 0 1-14.24-7.859c-1.2-.732-2.436-1.415-3.636-2.183-4.847-3.06-9.586-6.37-14.229-9.838-.588-.456-1.2-.876-1.787-1.296 18.464-13.665 38.86-24.69 60.646-32.788a438.803 438.803 0 0 0 61.499 75.187l.084.084h-.6zm31.72-12.657a417.412 417.412 0 0 1-62.505-72.824 400.09 400.09 0 0 1 42.422-9.886 398.331 398.331 0 0 1 43.527-5.243c-4.115 30.377-11.986 59.915-23.443 87.953zm25.843-119.806c-17.756.996-35.368 3.012-52.728 6.083-.228.036-.456.072-.684.12-.228.036-.444.072-.672.12a435.85 435.85 0 0 0-51.289 12.261c-8.326-15.369-15.176-31.433-20.431-47.941-.012-.036-.012-.06-.012-.06l115.402-20.348 6.899-1.212c.528 3.12.984 6.251 1.404 9.382v.012a261.252 261.252 0 0 1 2.111 41.583zm-2.123-140.357c24.906-9.514 48.073-22.59 68.792-38.86 20.66 21.752 36.232 47.63 45.482 75.596l-92.403 16.293c-5.591-18.212-12.921-35.98-21.871-53.029zM505.455 353.46c-2.627 4.75-5.435 9.394-8.47 13.845-.756 1.103-1.56 2.16-2.328 3.239a168.594 168.594 0 0 1-9.406 12.021c-.443.516-.9 1.032-1.343 1.548-.432.48-.864.96-1.296 1.428a170.746 170.746 0 0 1-10.834 11.025l-2.639 2.424a173.373 173.373 0 0 1-12.525 10.114c-.804.575-1.572 1.2-2.352 1.775a160.726 160.726 0 0 1-14.169 8.938c-.72.444-1.391.9-2.195 1.332-4.919 2.735-10.006 5.183-15.225 7.522-.828.36-1.583.768-2.423 1.116-1.992.84-4.127 1.44-6.179 2.207a374.735 374.735 0 0 0 18.356-68.013 380.333 380.333 0 0 0 3.12-21.907c23.766.06 47.629 3.288 70.94 9.586-.324.6-.696 1.188-1.032 1.8zm13.113-30.281c-26.586-7.93-53.94-12.106-81.222-12.418a293.562 293.562 0 0 0-4.619-56.075l92.404-16.293c4.523 28.806 2.28 57.827-6.563 84.786z"/><linearGradient id="Z" x1="412.44" x2="275.623" y1="98.316" y2="391.173" gradientUnits="userSpaceOnUse"><stop offset="0" style="stop-color:#47b0ca;stop-opacity:0"/><stop offset="1" style="stop-color:#2851ad"/></linearGradient><path fill="url(#Z)" d="M499.23 380.021c-5.232 1.98-10.366 3.324-15.321 4.091-.432.48-.864.96-1.296 1.428a170.76 170.76 0 0 1-10.834 11.026l-2.639 2.423a173.352 173.352 0 0 1-12.525 10.114c-.804.576-1.572 1.2-2.352 1.775a160.725 160.725 0 0 1-14.169 8.938c-.72.444-1.391.9-2.195 1.332-4.92 2.736-10.006 5.183-15.225 7.523-.828.36-1.583.767-2.423 1.115-1.992.84-4.127 1.44-6.179 2.208a374.725 374.725 0 0 0 18.356-68.013c-6.406-8.974-10.294-20.48-10.798-33.809-.923-24.402-5.974-45.758-18.272-60.67a261.252 261.252 0 0 1 2.112 41.583c-17.756.995-35.368 3.01-52.728 6.082a13.57 13.57 0 0 0-.684.12c-.228.036-.444.072-.672.12a435.862 435.862 0 0 0-51.289 12.261c-8.326-15.368-15.176-31.433-20.431-47.941-.012-.036-.012-.06-.012-.06l115.402-20.348c-20.815-16.58-56.135-20.023-113.71-1.871-46.238 14.565-86.033 21.427-114.575 9.886h-.012l-17.792 3.131a184.798 184.798 0 0 1-1.8-15.764c-13.773-13.27-22.855-34.493-26.094-66.13-.216.816-.42 1.644-.612 2.46 0 0 0 .024-.012.072-.432 3.395-20.885 112.803 57.023 196.624 63.286 68.09 164.928 108.624 271.632 55.272 31.673-15.837 55.224-36.028 72.656-56.58a.316.316 0 0 0 .06-.072c3.024-4.27 5.83-8.65 8.458-13.125.936-1.595 1.848-3.179 2.736-4.787a200.538 200.538 0 0 0 8.95-18.152c.372-.851.876-1.643 1.308-2.95l.251-.613c-14.852 15.753-29.98 25.89-44.294 31.301zm-342.765-76.627 92.404-16.292c5.602 18.224 12.933 35.992 21.883 53.04-24.907 9.502-48.074 22.591-68.793 38.86-20.66-21.752-36.232-47.63-45.494-75.608zm191.466 140.153c-.42 0-.84.012-1.248.024-1.632.036-3.263.12-4.883.048-.924-.048-1.811-.18-2.723-.228-5.855-.324-11.686-.84-17.48-1.751-.888-.132-1.776-.324-2.64-.468a219.444 219.444 0 0 1-17.168-3.431c-.996-.252-1.98-.564-2.987-.828a216.62 216.62 0 0 1-16.209-5.051l-3.551-1.332a205.249 205.249 0 0 1-15.069-6.442c-1.271-.6-2.531-1.164-3.803-1.848a155.448 155.448 0 0 1-14.24-7.858c-1.2-.732-2.436-1.416-3.636-2.184-4.847-3.06-9.586-6.37-14.229-9.838-.588-.456-1.2-.876-1.787-1.295 18.464-13.665 38.86-24.69 60.646-32.79a438.796 438.796 0 0 0 61.499 75.188l.084.084h-.576zm31.697-12.657a417.412 417.412 0 0 1-62.506-72.824 400.1 400.1 0 0 1 42.422-9.886 398.331 398.331 0 0 1 43.527-5.243c-4.115 30.378-11.986 59.915-23.443 87.953z"/><linearGradient id="aa" x1="318.506" x2="178.288" y1="50.22" y2="350.357" gradientUnits="userSpaceOnUse"><stop offset="0" style="stop-color:#47b0ca;stop-opacity:0"/><stop offset="1" style="stop-color:#2851ad"/></linearGradient><path fill="url(#aa)" d="M270.86 242.316c-5.483 1.571-11.602 2.855-18.356 3.767-4.427.6-8.626.996-12.597 1.2-2.316-15.705-3.384-31.481-3.156-47.186a292.275 292.275 0 0 1-41.235-3.407c8.099-7.45 20.6-13.653 37.336-16.725 38.188-7.018 63.118 2.46 71.972 16.329a448.433 448.433 0 0 1-36.196 3.491 260.632 260.632 0 0 0 2.232 42.53z"/><linearGradient id="ab" x1="486.154" x2="478.11" y1="166.265" y2="150.713" gradientUnits="userSpaceOnUse"><stop offset="0" style="stop-color:#2f789e;stop-opacity:0"/><stop offset="1" style="stop-color:#183861"/></linearGradient><path fill="url(#ab)" d="m484.958 146.408-15.998 19.53 18.035-16.754 5.987-2.634z"/><linearGradient id="ac" x1="479.715" x2="481.84" y1="149.276" y2="161.067" gradientUnits="userSpaceOnUse"><stop offset="0" style="stop-color:#5dd2ff"/><stop offset="1" style="stop-color:#50bfec"/></linearGradient><path fill="url(#ac)" d="m468.96 165.938 18.485-16.009 5.537-3.379-5.987 2.634z"/><linearGradient id="ad" x1="238.044" x2="229.999" y1="238.635" y2="223.084" gradientUnits="userSpaceOnUse"><stop offset="0" style="stop-color:#2f789e;stop-opacity:0"/><stop offset="1" style="stop-color:#183861"/></linearGradient><path fill="url(#ad)" d="m237.082 218.657-15.999 19.531 16.357-15.685 7.956-1.996z"/><linearGradient id="ae" x1="232.13" x2="234.007" y1="223.194" y2="233.606" gradientUnits="userSpaceOnUse"><stop offset="0" style="stop-color:#5dd2ff"/><stop offset="1" style="stop-color:#50bfec"/></linearGradient><path fill="url(#ae)" d="m221.083 238.188 16.343-14.485 7.97-3.196-7.956 1.996z"/><linearGradient id="af" x1="115.463" x2="108.857" y1="280.768" y2="267.997" gradientUnits="userSpaceOnUse"><stop offset="0" style="stop-color:#2f789e;stop-opacity:0"/><stop offset="1" style="stop-color:#183861"/></linearGradient><path fill="url(#af)" d="m115.965 263.694-15.399 17.208 15.909-14.459 5.987-1.079z"/><linearGradient id="ag" x1="110.547" x2="112.183" y1="267.769" y2="276.845" gradientUnits="userSpaceOnUse"><stop offset="0" style="stop-color:#5dd2ff"/><stop offset="1" style="stop-color:#50bfec"/></linearGradient><path fill="url(#ag)" d="m100.566 280.902 15.843-13.282 6.053-2.256-5.987 1.079z"/><linearGradient id="ah" x1="303.641" x2="295.597" y1="410.64" y2="395.088" gradientUnits="userSpaceOnUse"><stop offset="0" style="stop-color:#2f789e;stop-opacity:0"/><stop offset="1" style="stop-color:#183861"/></linearGradient><path fill="url(#ah)" d="m302.445 390.783-15.998 19.53 18.035-16.753 5.987-2.635z"/><linearGradient id="ai" x1="297.202" x2="299.327" y1="393.651" y2="405.442" gradientUnits="userSpaceOnUse"><stop offset="0" style="stop-color:#5dd2ff"/><stop offset="1" style="stop-color:#50bfec"/></linearGradient><path fill="url(#ai)" d="m286.447 410.313 18.485-16.009 5.537-3.379-5.987 2.635z"/><linearGradient id="aj" x1="136.76" x2="128.72" y1="354.146" y2="338.603" gradientUnits="userSpaceOnUse"><stop offset="0" style="stop-color:#2f789e;stop-opacity:0"/><stop offset="1" style="stop-color:#183861"/></linearGradient><path fill="url(#aj)" d="m135.303 334.435-15.736 19.388 17.36-16.196 6.663-3.192z"/><linearGradient id="ak" x1="130.323" x2="132.448" y1="337.161" y2="348.952" gradientUnits="userSpaceOnUse"><stop offset="0" style="stop-color:#5dd2ff"/><stop offset="1" style="stop-color:#50bfec"/></linearGradient><path fill="url(#ak)" d="m119.567 353.823 17.616-15.283 6.407-4.105-6.663 3.192z"/><linearGradient id="al" x1="506.942" x2="501.925" y1="194.306" y2="184.605" gradientUnits="userSpaceOnUse"><stop offset="0" style="stop-color:#2f789e;stop-opacity:0"/><stop offset="1" style="stop-color:#183861"/></linearGradient><path fill="url(#al)" d="m506.945 181.532-11.154 12.791 11.822-10.982 3.924-1.727z"/><linearGradient id="am" x1="502.841" x2="504.234" y1="183.4" y2="191.129" gradientUnits="userSpaceOnUse"><stop offset="0" style="stop-color:#5dd2ff"/><stop offset="1" style="stop-color:#50bfec"/></linearGradient><path fill="url(#am)" d="m495.791 194.323 12.117-10.494 3.629-2.215-3.924 1.727z"/><linearGradient id="an" x1="403.76" x2="399.031" y1="297.891" y2="288.749" gradientUnits="userSpaceOnUse"><stop offset="0" style="stop-color:#2f789e;stop-opacity:0"/><stop offset="1" style="stop-color:#183861"/></linearGradient><path fill="url(#an)" d="m404.897 285.267-12.003 12.824 12.322-10.937 3.599-.697z"/><linearGradient id="ao" x1="400.123" x2="401.36" y1="288.218" y2="295.081" gradientUnits="userSpaceOnUse"><stop offset="0" style="stop-color:#5dd2ff"/><stop offset="1" style="stop-color:#50bfec"/></linearGradient><path fill="url(#ao)" d="m392.894 298.091 12.322-10.241 3.599-1.393-3.599.697z"/><linearGradient id="ap" x1="404.7" x2="401.333" y1="286.029" y2="279.519" gradientUnits="userSpaceOnUse"><stop offset="0" style="stop-color:#2f789e;stop-opacity:0"/><stop offset="1" style="stop-color:#183861"/></linearGradient><path fill="url(#ap)" d="m404.329 277.65-6.937 8.299 7.256-6.413 3.599-.696z"/><linearGradient id="aq" x1="402.39" x2="403.117" y1="280.01" y2="284.044" gradientUnits="userSpaceOnUse"><stop offset="0" style="stop-color:#5dd2ff"/><stop offset="1" style="stop-color:#50bfec"/></linearGradient><path fill="url(#aq)" d="m397.392 285.949 7.256-5.716 3.599-1.393-3.599.696z"/><linearGradient id="ar" x1="399.903" x2="396.536" y1="372.321" y2="365.811" gradientUnits="userSpaceOnUse"><stop offset="0" style="stop-color:#2f789e;stop-opacity:0"/><stop offset="1" style="stop-color:#183861"/></linearGradient><path fill="url(#ar)" d="m399.532 363.942-6.936 8.299 6.746-6.274 4.109-.835z"/><linearGradient id="as" x1="397.593" x2="398.321" y1="366.302" y2="370.337" gradientUnits="userSpaceOnUse"><stop offset="0" style="stop-color:#5dd2ff"/><stop offset="1" style="stop-color:#50bfec"/></linearGradient><path fill="url(#as)" d="m392.596 372.241 6.459-5.333 4.396-1.776-4.109.835z"/><linearGradient id="at" x1="527.37" x2="522.352" y1="280.995" y2="271.294" gradientUnits="userSpaceOnUse"><stop offset="0" style="stop-color:#2f789e;stop-opacity:0"/><stop offset="1" style="stop-color:#183861"/></linearGradient><path fill="url(#at)" d="m527.372 268.221-11.154 12.791 11.244-10.62 4.503-2.089z"/><linearGradient id="au" x1="523.268" x2="524.661" y1="270.089" y2="277.818" gradientUnits="userSpaceOnUse"><stop offset="0" style="stop-color:#5dd2ff"/><stop offset="1" style="stop-color:#50bfec"/></linearGradient><path fill="url(#au)" d="m516.218 281.012 11.17-9.806 4.577-2.903-4.503 2.089z"/><linearGradient id="av" x1="382.26" x2="377.242" y1="210.317" y2="200.616" gradientUnits="userSpaceOnUse"><stop offset="0" style="stop-color:#2f789e;stop-opacity:0"/><stop offset="1" style="stop-color:#183861"/></linearGradient><path fill="url(#av)" d="m382.262 197.543-11.154 12.791 11.822-10.982 3.925-1.727z"/><linearGradient id="aw" x1="378.158" x2="379.551" y1="199.412" y2="207.141" gradientUnits="userSpaceOnUse"><stop offset="0" style="stop-color:#5dd2ff"/><stop offset="1" style="stop-color:#50bfec"/></linearGradient><path fill="url(#aw)" d="m371.108 210.334 12.117-10.494 3.63-2.215-3.925 1.727z"/><linearGradient id="ax" x1="251.909" x2="246.891" y1="308.681" y2="298.98" gradientUnits="userSpaceOnUse"><stop offset="0" style="stop-color:#2f789e;stop-opacity:0"/><stop offset="1" style="stop-color:#183861"/></linearGradient><path fill="url(#ax)" d="m251.911 295.907-11.154 12.79 11.822-10.982 3.925-1.727z"/><linearGradient id="ay" x1="247.807" x2="249.2" y1="297.775" y2="305.504" gradientUnits="userSpaceOnUse"><stop offset="0" style="stop-color:#5dd2ff"/><stop offset="1" style="stop-color:#50bfec"/></linearGradient><path fill="url(#ay)" d="m240.757 308.697 12.117-10.494 3.63-2.215-3.925 1.727z"/><linearGradient id="az" x1="255.05" x2="248.382" y1="321.364" y2="308.472" gradientUnits="userSpaceOnUse"><stop offset="0" style="stop-color:#2f789e;stop-opacity:0"/><stop offset="1" style="stop-color:#183861"/></linearGradient><path fill="url(#az)" d="m255.053 304.388-14.823 16.998 15.711-14.595 5.215-2.295z"/><linearGradient id="aA" x1="249.599" x2="251.451" y1="306.871" y2="317.142" gradientUnits="userSpaceOnUse"><stop offset="0" style="stop-color:#5dd2ff"/><stop offset="1" style="stop-color:#50bfec"/></linearGradient><path fill="url(#aA)" d="m240.23 321.386 16.103-13.946 4.823-2.944-5.215 2.295z"/><linearGradient id="aB" x1="147.948" x2="142.93" y1="371.358" y2="361.657" gradientUnits="userSpaceOnUse"><stop offset="0" style="stop-color:#2f789e;stop-opacity:0"/><stop offset="1" style="stop-color:#183861"/></linearGradient><path fill="url(#aB)" d="m147.95 358.584-11.154 12.79 11.822-10.982 3.925-1.727z"/><linearGradient id="aC" x1="143.846" x2="145.239" y1="360.452" y2="368.181" gradientUnits="userSpaceOnUse"><stop offset="0" style="stop-color:#5dd2ff"/><stop offset="1" style="stop-color:#50bfec"/></linearGradient><path fill="url(#aC)" d="m136.796 371.374 12.47-10.709 3.277-2-3.925 1.727z"/><linearGradient id="aD" x1="338.444" x2="331.451" y1="145.309" y2="131.79" gradientUnits="userSpaceOnUse"><stop offset="0" style="stop-color:#2f789e;stop-opacity:0"/><stop offset="1" style="stop-color:#183861"/></linearGradient><path fill="url(#aD)" d="m338.448 127.508-15.545 17.824 17.452-15.518 4.493-2.193z"/><linearGradient id="aE" x1="332.728" x2="334.669" y1="130.111" y2="140.882" gradientUnits="userSpaceOnUse"><stop offset="0" style="stop-color:#5dd2ff"/><stop offset="1" style="stop-color:#50bfec"/></linearGradient><path fill="url(#aE)" d="m322.903 145.332 17.863-14.838 4.082-2.873-4.493 2.193z"/><linearGradient id="aF" x1="241.922" x2="235.485" y1="155.319" y2="142.874" gradientUnits="userSpaceOnUse"><stop offset="0" style="stop-color:#2f789e;stop-opacity:0"/><stop offset="1" style="stop-color:#183861"/></linearGradient><path fill="url(#aF)" d="m243.198 138.274-15.055 16.794 14.755-13.643 5.157-.638z"/><linearGradient id="aG" x1="237.157" x2="238.707" y1="142.704" y2="151.304" gradientUnits="userSpaceOnUse"><stop offset="0" style="stop-color:#5dd2ff"/><stop offset="1" style="stop-color:#50bfec"/></linearGradient><path fill="url(#aG)" d="m228.143 155.068 14.305-12.368 5.607-1.913-5.157.638z"/><linearGradient id="aH" x1="421.962" x2="333.074" y1="25.895" y2="265.975" gradientUnits="userSpaceOnUse"><stop offset="0" style="stop-color:#5dd2ff"/><stop offset="1" style="stop-color:#50bfec"/></linearGradient><path fill="url(#aH)" d="M482.493 99.091c-.732-.671-1.548-1.223-2.292-1.883a247.896 247.896 0 0 0-16.664-13.641 265.4 265.4 0 0 0-4.727-3.467 239.921 239.921 0 0 0-18.056-11.662c-1.14-.672-2.231-1.38-3.371-2.04a240.139 240.139 0 0 0-47.665-20.49c-.66-.205-1.332-.349-2.016-.565a235.885 235.885 0 0 0-22.22-5.41c-1.679-.276-3.214-.564-4.798-.768a232.424 232.424 0 0 0-19.904-2.496c-1.98-.168-3.947-.36-5.938-.456-6.527-.348-12.957-.372-19.484-.144-1.98.06-3.947.012-5.939.12a205.402 205.402 0 0 0-24.822 2.832 201.042 201.042 0 0 0-24.115 5.806c-1.86.564-3.66 1.272-5.507 1.884-6.094 2.004-12.057 4.211-17.816 6.719-1.775.767-3.503 1.607-5.243 2.423a196.06 196.06 0 0 0-17.096 9.034c-1.415.804-2.7 1.572-4.043 2.327a203.59 203.59 0 0 0-17.888 12.478c-.516.42-1.08.792-1.584 1.211a200.268 200.268 0 0 0-34.36 34.949c-.744.983-1.416 2.003-2.147 3.011a184.45 184.45 0 0 0-11.146 16.808 205.936 205.936 0 0 0-2.723 4.787 197.464 197.464 0 0 0-8.95 18.152c-.372.852-.876 1.632-1.308 2.952a204.77 204.77 0 0 0-10.21 31.469c19.796-42.843 66.657-113.567 165.827-135.426 24.643-5.423 50.305-5.4 75.464-.564-6.167-6.61-4.103-13.161 12.345-9.862 51.013 10.258 59.495 29.381 55.56 35.344 91.036 52.368 151.862 170.53 87.34 312.519.744-.984 1.416-2.004 2.148-3.011a180.24 180.24 0 0 0 11.133-16.809c.936-1.595 1.848-3.179 2.736-4.787a200.538 200.538 0 0 0 8.95-18.152c.372-.851.876-1.643 1.308-2.95 35.068-84.126 10.713-184.472-60.779-250.242zm-147.855-49.86c-8.854-.708-10.798-6.767-1.056-6.371 12.921.528 9.91 7.078 1.056 6.37zm116.266 42.746c-11.877-5.723-11.002-16.748-1.908-11.446 14.205 8.267 13.785 17.169 1.908 11.446zm23.323 15.692c-4.235-.851-7.882-10.425-2.964-8.062 5.723 2.76 7.21 8.914 2.964 8.062z"/><linearGradient id="aI" x1="410.678" x2="321.791" y1="21.718" y2="261.798" gradientUnits="userSpaceOnUse"><stop offset="0" style="stop-color:#5dd2ff"/><stop offset="1" style="stop-color:#50bfec"/></linearGradient><path fill="url(#aI)" d="M382.33 54.503c-14.695-2.955-10.167 7.261 1.27 11.073 11.437 3.813 25.415 11.982 30.317 11.074 4.901-.908 3.63-15.068-31.588-22.147z"/><linearGradient id="aJ" x1="444.491" x2="246.129" y1="127.757" y2="463.804" gradientUnits="userSpaceOnUse"><stop offset="0" style="stop-color:#5dd2ff"/><stop offset="1" style="stop-color:#50bfec"/></linearGradient><path fill="url(#aJ)" d="m437.347 310.76-1.8 31.314c-3.49 30.94-10.701 61.114-21.475 89.92 61.21-197.68-62.674-337.965-85.085-361.264a435.676 435.676 0 0 1 58.187 71.852l16.172 28.146c8.95 17.048 16.28 34.816 21.872 53.028l7.51 30.929a293.56 293.56 0 0 1 4.619 56.076z"/><linearGradient id="aK" x1="459.371" x2="261.01" y1="136.541" y2="472.588" gradientUnits="userSpaceOnUse"><stop offset="0" style="stop-color:#5dd2ff"/><stop offset="1" style="stop-color:#50bfec"/></linearGradient><path fill="url(#aK)" d="M379.628 430.89c-83.238-62.134-99.47-146.536-99.962-149.163 5.255 16.508 12.105 32.573 20.431 47.941l17.025 28.398a417.412 417.412 0 0 0 62.506 72.824z"/><linearGradient id="aL" x1="451.212" x2="252.85" y1="131.724" y2="467.771" gradientUnits="userSpaceOnUse"><stop offset="0" style="stop-color:#5dd2ff"/><stop offset="1" style="stop-color:#50bfec"/></linearGradient><path fill="url(#aL)" d="M498.059 378.751c-24.967 35.129-59.05 53.439-79.074 60.11-38.655 12.884-103.843 23.75-175.251-17.041-71.408-40.803-87.269-118.426-87.269-118.426 9.262 27.978 24.835 53.856 45.494 75.607 7.726 8.02 15.777 15.47 24.319 22.064.588.42 1.2.84 1.787 1.295 4.643 3.468 9.382 6.779 14.23 9.838 1.199.768 2.435 1.452 3.634 2.184 4.631 2.879 9.37 5.494 14.241 7.858 1.272.684 2.532 1.248 3.803 1.848a205.249 205.249 0 0 0 15.069 6.442l3.551 1.332a216.62 216.62 0 0 0 16.209 5.05c1.007.265 1.991.577 2.987.829a219.444 219.444 0 0 0 17.168 3.43c.864.145 1.752.337 2.64.469 5.794.911 11.625 1.427 17.48 1.751.912.048 1.8.18 2.723.228 1.62.072 3.251-.012 4.883-.048l.372.132.852-.156h.024l.492-.084c22.88-.076 44.735-4.002 65.65-11.47 2.05-.767 4.186-1.367 6.178-2.207.84-.348 1.595-.756 2.423-1.115 5.22-2.34 10.306-4.787 15.225-7.523.804-.432 1.476-.888 2.195-1.332 4.871-2.735 9.61-5.71 14.17-8.938.78-.575 1.547-1.2 2.35-1.775a173.352 173.352 0 0 0 12.526-10.114l2.64-2.423a170.76 170.76 0 0 0 10.833-11.026c.432-.468.864-.948 1.296-1.428.444-.516.9-1.031 1.343-1.547a168.567 168.567 0 0 0 9.406-12.022c.768-1.08 1.572-2.135 2.328-3.239 3.035-4.451 5.842-9.094 8.47-13.845.336-.612.708-1.2 1.032-1.8 4.623-9.033 8.623-18.548 12.081-28.481 8.842-26.958 11.086-55.98 6.563-84.785 12.345 62.59-3.858 107.677-27.073 140.358z"/><linearGradient id="aM" x1="346.021" x2="147.66" y1="69.633" y2="405.68" gradientUnits="userSpaceOnUse"><stop offset="0" style="stop-color:#5dd2ff"/><stop offset="1" style="stop-color:#50bfec"/></linearGradient><path fill="url(#aM)" d="M447.797 109.829c-.936 1.188-31.53 39.171-126.668 57.287-95.547 18.2-152.21-7.282-153.506-7.87 23.298 6.275 47.161 9.502 70.916 9.562l32.489-.876a413.605 413.605 0 0 0 43.502-5.267 402.077 402.077 0 0 0 42.447-9.873l30.197-10.21c21.775-8.086 42.17-19.1 60.623-32.753z"/><linearGradient id="aN" x1="411.146" x2="212.785" y1="108.074" y2="444.121" gradientUnits="userSpaceOnUse"><stop offset="0" style="stop-color:#5dd2ff"/><stop offset="1" style="stop-color:#50bfec"/></linearGradient><path fill="url(#aN)" d="M148.967 272.465s88.626-9.12 185.787-27.753 182.867-37.249 182.867-37.249l-92.403 16.293-276.251 48.71z"/><linearGradient id="aO" x1="479.792" x2="281.431" y1="148.595" y2="484.642" gradientUnits="userSpaceOnUse"><stop offset="0" style="stop-color:#5dd2ff"/><stop offset="1" style="stop-color:#50bfec"/></linearGradient><path fill="url(#aO)" d="M518.569 323.178c-178.856-36.7-317.87 58.103-316.61 55.823 20.72-16.268 43.886-29.357 68.793-38.859l29.345-10.474a435.862 435.862 0 0 1 51.289-12.26c.228-.049.444-.085.672-.12.228-.049.456-.085.684-.12 17.36-3.072 34.972-5.088 52.728-6.083l31.877-.324c27.282.312 54.636 4.487 81.222 12.417z"/><linearGradient id="aP" x1="327.751" x2="129.389" y1="58.848" y2="394.895" gradientUnits="userSpaceOnUse"><stop offset="0" style="stop-color:#5dd2ff"/><stop offset="1" style="stop-color:#50bfec"/></linearGradient><path fill="url(#aP)" d="m248.869 287.102-7.499-30.93c-3.335-18.62-4.883-37.395-4.619-56.075l1.788-31.289c3.491-30.881 10.678-61.007 21.44-89.764-1.297 4.547-31.363 104.003-11.11 208.058z"/></svg>