<svg xmlns="http://www.w3.org/2000/svg" viewBox="0 0 600 600" xml:space="preserve"><linearGradient id="a" x1="330.225" x2="160.498" y1="196.431" y2="558.348" gradientUnits="userSpaceOnUse"><stop offset=".056" style="stop-color:#d63538"/><stop offset="1" style="stop-color:#98292a"/></linearGradient><path fill="url(#a)" d="M571.416 383.128A1107.618 1107.618 0 0 0 521 430.241c-6.682 6.644-14.78 10.643-25.512 14.01-4.327 1.353-9.098 2.619-14.363 3.897-28.08 6.238-97.744 21.411-155.904 38.558-58.63 16.451-123.585 39.812-149.363 48.48-4.011 1.266-7.732 2.341-11.212 3.202-19.133 4.657-31.459 2.404-48.745-15.958-11.959-12.313-24.41-32.168-38.837-62.665v-.013c-10.529-22.26-22.095-50.188-35.268-85-16.818-44.09-28.372-78.953-35.003-106.717C.909 243.37-1.091 224.3.554 209.343c1.025-10.934 3.303-19.197 7.125-25.752a1331.622 1331.622 0 0 1 39.786-63.868c-4.164 6.29-6.808 14.325-8.213 25.005-2.417 16.198-.392 37.509 6.378 65.943 6.2 26.056 16.388 58.098 30.789 97.669 13.16 36.458 24.752 65.399 35.382 88.177 13.287 28.448 25.081 47.303 36.635 59.35 15.957 17.16 28.017 20.804 45.417 18.324 4.999-.709 10.415-1.924 16.477-3.455 27.08-7.491 95.301-27.713 156.613-41.228 60.869-14.275 133.493-25.917 162.75-30.7 1.039-.19 2.064-.38 3.05-.57 17.4-3.328 29.283-6.859 38.673-15.11z"/><linearGradient id="b" x1="20.707" x2="41.884" y1="155.583" y2="293.628" gradientUnits="userSpaceOnUse"><stop offset=".056" style="stop-color:#e58187"/><stop offset="1" style="stop-color:#a22c2f;stop-opacity:0"/></linearGradient><path fill="url(#b)" d="M45.63 210.671C30.672 229.3 16.917 250.293 6.793 268.035.909 243.37-1.091 224.3.554 209.343c1.025-10.934 3.303-19.197 7.125-25.752a1331.622 1331.622 0 0 1 39.786-63.868c-4.164 6.29-6.808 14.325-8.213 25.005-2.417 16.198-.392 37.509 6.378 65.943z"/><linearGradient id="c" x1="239.178" x2="316.263" y1="230.334" y2="403.525" gradientUnits="userSpaceOnUse"><stop offset="0" style="stop-color:#a22c2f;stop-opacity:0"/><stop offset=".949" style="stop-color:#782323"/></linearGradient><path fill="url(#c)" d="M571.414 383.127a1103.965 1103.965 0 0 0-50.416 47.114c-6.675 6.647-14.774 10.641-25.512 14.014-4.326 1.354-9.094 2.612-14.36 3.897-28.082 6.233-97.75 21.407-155.906 38.558-58.626 16.447-123.581 39.803-149.356 48.482-4.022 1.258-7.74 2.336-11.222 3.192-19.127 4.658-31.455 2.405-48.744-15.948-11.955-12.314-24.407-32.174-38.835-62.675v-.014a36577.096 36577.096 0 0 0 34.744-63.228c13.281 28.442 25.07 47.307 36.624 59.345 15.962 17.164 28.027 20.813 45.427 18.325 4.99-.705 10.407-1.92 16.474-3.455 27.074-7.49 95.304-27.71 156.611-41.226 60.865-14.276 133.49-25.913 162.748-30.695a416.38 416.38 0 0 0 3.054-.58c17.4-3.317 29.285-6.855 38.67-15.106z" opacity=".7"/><linearGradient id="d" x1="265.191" x2="344.279" y1="299.19" y2="459.367" gradientUnits="userSpaceOnUse"><stop offset="0" style="stop-color:#8d3335;stop-opacity:0"/><stop offset=".949" style="stop-color:#571729"/></linearGradient><path fill="url(#d)" d="M532.745 398.233c-14.732 18.187-27.654 34.136-37.26 46.022-4.325 1.354-9.093 2.612-14.358 3.897-28.083 6.233-97.751 21.407-155.907 38.558-58.626 16.447-123.581 39.803-149.356 48.482-4.022 1.258-7.74 2.336-11.222 3.192 7.532-18.228 17.552-40.189 29.216-64.195 4.99-.705 10.407-1.92 16.474-3.455 27.074-7.49 95.304-27.71 156.611-41.226 60.865-14.276 133.49-25.913 162.748-30.695 1.036-.193 2.06-.387 3.054-.58z" opacity=".7"/><linearGradient id="e" x1="303.77" x2="259.277" y1="534.565" y2="327.885" gradientUnits="userSpaceOnUse"><stop offset=".036" style="stop-color:#f4cea6"/><stop offset="1" style="stop-color:#db4d51;stop-opacity:0"/></linearGradient><path fill="url(#e)" d="M520.998 430.24c-6.675 6.648-14.774 10.642-25.512 14.015-4.326 1.354-9.094 2.612-14.36 3.897-28.082 6.233-97.75 21.407-155.906 38.558-58.626 16.447-123.581 39.803-149.356 48.482-4.022 1.258-7.74 2.336-11.222 3.192-19.127 4.658-31.455 2.405-48.744-15.948-11.955-12.314-24.407-32.174-38.835-62.675v-.014c-10.531-22.25-22.099-50.181-35.27-84.995-31.745-83.225-44.736-133.6-41.24-165.415 6.607 91.228 95.167 281.63 133.38 306.23 38.213 24.6 59.29-3.662 175.062-34.495 115.786-30.833 194.023-33.349 212.003-50.831z"/><linearGradient id="f" x1="321.635" x2="306.542" y1="169.368" y2="497.622" gradientUnits="userSpaceOnUse"><stop offset=".056" style="stop-color:#de2d35"/><stop offset="1" style="stop-color:#a22c2f"/></linearGradient><path fill="url(#f)" d="M557.425 93.07c19.996 24.755 33.608 66.62 40.052 137.565 6.215 70.722.492 110.047-12.162 133.692-12.239 23.82-26.49 29.166-55.626 34.49-29.256 4.775-101.883 16.41-162.745 30.685-61.313 13.529-129.532 33.746-156.607 41.23-27.303 6.932-41.367 7.205-61.913-14.873-20.797-21.68-42.39-65.515-72.01-147.516-30.1-82.728-41.814-132.56-37.167-163.62 4.149-31.082 18.554-39.8 51.233-48.176 32.428-8.968 117.226-23.915 192.934-30.292 75.305-7.261 164.372-7.96 200.273-5.319 35.789 1.987 54.306 7.349 73.738 32.134z"/><linearGradient id="g" x1="324.848" x2="264.038" y1="213.504" y2="466.416" gradientUnits="userSpaceOnUse"><stop offset="0" style="stop-color:#a22c2f;stop-opacity:0"/><stop offset=".949" style="stop-color:#9a2325"/></linearGradient><path fill="url(#g)" d="M304.31 331.923c5.61 4.685 10.752 10.255 14.815 16.833 20.496 33.169-45.358 55.738-106.637 25.996-54.425-26.424-43.05-76.315 14.663-71.119C126.885 257.142 70.678 189.864 49.34 160c.29 29.437 12.204 75.168 37.467 144.588 28.484 78.844 49.947 123.139 69.599 143.62l.11.125c12.024 12.921 19.75 15.506 28.305 15.506 6.758 0 14.884-1.81 22.679-3.787 4.933-1.368 11.208-3.15 18.56-5.238 32.934-9.342 88.05-24.973 138.438-36.098 58.584-13.738 126.663-24.822 159.39-30.156l3.924-.636c28.18-5.155 37.854-9.564 47.667-28.65l.082-.165c2.695-5.045 4.99-10.877 6.87-17.538-111.6 18.782-203.587 11.056-278.12-9.647zm-149.398-23.577c-20.73-4.022-29.893-27.986-9.674-26.01 32.243 3.137 30.405 30.032 9.674 26.01z"/><linearGradient id="h" x1="253.818" x2="193.009" y1="196.426" y2="449.338" gradientUnits="userSpaceOnUse"><stop offset="0" style="stop-color:#a22c2f;stop-opacity:0"/><stop offset=".949" style="stop-color:#9a2325"/></linearGradient><path fill="url(#h)" d="M228.616 267.213c-32.298-6.34-10.596 29.026 13.82 26.262 24.416-2.764 11.978-21.2-13.82-26.262z"/><linearGradient id="i" x1="314.3" x2="319.991" y1="108.613" y2="297.373" gradientUnits="userSpaceOnUse"><stop offset=".056" style="stop-color:#e26769"/><stop offset="1" style="stop-color:#db4d51;stop-opacity:0"/></linearGradient><path fill="url(#i)" d="M583.103 204.514c-24.211-12.422-55.889-18.79-88.039-18.477-57.463-.993-211.861 8.085-304.112 32.284-62.907 15.162-97.124 46.015-112.347 64.012-8.334-24.378-14.97-45.785-19.702-64.406-7.776-30.48-10.489-53.528-7.976-70.192 3.506-24.994 13.424-31.732 43.684-39.62 33.532-9.538 123.133-24.914 191.082-30.687 67.586-6.945 161.294-8.693 198.3-5.968 9.551.494 16.372 1.16 22.258 2.105 16.207 2.606 27.72 7.462 41.228 24.645l.119.15c7.86 9.689 14.655 22.534 20.382 38.84 6.365 18.05 11.399 40.354 15.123 67.314z"/><linearGradient id="j" x1="307.783" x2="310.04" y1="49.251" y2="235.128" gradientUnits="userSpaceOnUse"><stop offset=".056" style="stop-color:#efbab6"/><stop offset="1" style="stop-color:#db4d51;stop-opacity:0"/></linearGradient><path fill="url(#j)" d="M567.98 137.2c-22.491-6.729-58.874-12.356-121.822-13.712-119.433-4.63-280.25 32.207-330.5 48.848-29.311 8.417-47.136 29.217-56.755 45.59-7.776-30.479-10.489-53.527-7.976-70.191 3.506-24.994 13.424-31.732 43.684-39.62 33.533-9.538 123.133-24.914 191.082-30.687 67.586-6.945 161.294-8.693 198.3-5.968 9.551.494 16.372 1.16 22.258 2.105 16.207 2.606 27.72 7.462 41.228 24.645l.119.15c7.86 9.689 14.655 22.534 20.382 38.84z"/><linearGradient id="k" x1="450.39" x2="305.709" y1="14.213" y2="263.885" gradientUnits="userSpaceOnUse"><stop offset=".036" style="stop-color:#f6dcdd"/><stop offset="1" style="stop-color:#db4d51;stop-opacity:0"/></linearGradient><path fill="url(#k)" d="m575.56 359.108-.082.166c-.65 1.257-1.3 2.46-1.949 3.593 19.376-57.645 5.376-180.81-20.648-229.514-26.935-50.36-90.274-56.276-236.326-47.984-146.053 8.306-251.557 34.358-251.557 34.358s.055-.802.359-2.212v-.014c6.288-3.938 15.175-6.993 27.862-10.24l.207-.056c30.197-8.347 113.34-23.397 190.913-29.934 43.493-4.188 98.387-6.69 146.98-6.69 21.158 0 39.47.498 51.563 1.383l.193.013c33.763 1.866 48.758 6.372 65.647 27.917l.096.125c19.487 24.102 31.787 67.166 37.647 131.61 5.445 61.901 1.88 103.611-10.905 127.479z"/><linearGradient id="l" x1="354.949" x2="330.764" y1="330.414" y2="434.757" gradientUnits="userSpaceOnUse"><stop offset="0" style="stop-color:#a22c2f;stop-opacity:0"/><stop offset=".949" style="stop-color:#782323"/></linearGradient><path fill="url(#l)" d="m576.068 360.472-.105.213c-9.724 19.323-19.352 23.384-47.201 28.31-30.574 4.775-106.048 16.73-163.13 29.906-57.64 12.284-128.926 32.73-157.204 40.454-6.925 1.713-12.05 2.757-16.526 3.314-13.149 1.636-22.79-.258-37.132-15.695l-.097-.108c-12.852-13.458-26.072-36.619-41.027-71.55 25.574 3.578 79.294-10.107 140.814-23.605 61.288-13.908 130.375-27.63 181.336-33.602 80.761-9.743 128.867-14.135 153.231-35.887.21 37.018-4.37 62.106-12.959 78.25z"/><linearGradient id="m" x1="516.027" x2="497.37" y1="97.12" y2="181.423" gradientUnits="userSpaceOnUse"><stop offset=".036" style="stop-color:#f6dcdd"/><stop offset="1" style="stop-color:#db4d51;stop-opacity:0"/></linearGradient><path fill="url(#m)" d="M518.381 110.126c-40.842-23.66-58.045 12.899-18.427 38.697s57.84-15.864 18.427-38.697z"/><linearGradient id="n" x1="458.504" x2="439.847" y1="84.389" y2="168.693" gradientUnits="userSpaceOnUse"><stop offset=".036" style="stop-color:#f6dcdd"/><stop offset="1" style="stop-color:#db4d51;stop-opacity:0"/></linearGradient><path fill="url(#n)" d="M456.19 92.62c-24.412-.61-18.427 14.742 0 15.663 18.427.922 18.427-15.202 0-15.663z"/><linearGradient id="o" x1="284.854" x2="321.826" y1="276.252" y2="217.097" gradientUnits="userSpaceOnUse"><stop offset="0" style="stop-color:#e7c2b6"/><stop offset=".928" style="stop-color:#d7abb9"/></linearGradient><path fill="url(#o)" d="M428.8 238.662a1140.583 1140.583 0 0 0-24.953 19.27 1039.508 1039.508 0 0 0-19.423 15.778c-.99.825-1.98 1.651-2.971 2.488A1115.497 1115.497 0 0 0 290.2 361.72c-10.425-43.739-21.698-87.974-33.81-132.656-.507-1.899-1.025-3.786-1.544-5.684a4244.626 4244.626 0 0 0-7.949-28.81 4157.148 4157.148 0 0 0-9.811-34.612A4236.622 4236.622 0 0 1 428.8 238.662z"/><linearGradient id="p" x1="316.967" x2="334.263" y1="306.788" y2="190.433" gradientUnits="userSpaceOnUse"><stop offset="0" style="stop-color:#d8a594;stop-opacity:0"/><stop offset=".928" style="stop-color:#c88b9e"/></linearGradient><path fill="url(#p)" d="M428.8 238.662a1140.583 1140.583 0 0 0-24.953 19.27 1039.508 1039.508 0 0 0-19.423 15.778c-.99.825-1.98 1.651-2.971 2.488-40.367-22.854-96.583-42.878-126.607-52.82a4244.626 4244.626 0 0 0-7.949-28.81 4157.148 4157.148 0 0 0-9.811-34.61A4236.622 4236.622 0 0 1 428.8 238.661z"/><linearGradient id="q" x1="210.401" x2="395.941" y1="414.99" y2="88.438" gradientUnits="userSpaceOnUse"><stop offset=".036" style="stop-color:#f4cea6"/><stop offset="1" style="stop-color:#db4d51;stop-opacity:0"/></linearGradient><path fill="url(#q)" d="M428.803 238.664c-53.084 41.295-140.815 136.088-140.815 136.088l-50.9-214.795a4535.778 4535.778 0 0 1 9.812 34.606 4638.575 4638.575 0 0 1 9.495 34.496c12.106 44.68 23.384 88.92 33.804 132.66a1115.238 1115.238 0 0 1 94.227-88.007c6.413-5.334 12.88-10.6 19.417-15.783a1130.178 1130.178 0 0 1 24.96-19.265z"/><linearGradient id="r" x1="341.832" x2="330.265" y1="327.05" y2="160.784" gradientUnits="userSpaceOnUse"><stop offset="0" style="stop-color:#d5a99a;stop-opacity:0"/><stop offset=".928" style="stop-color:#c595a2"/></linearGradient><linearGradient id="s" x1="328.065" x2="336.357" y1="122.882" y2="252.792" gradientUnits="userSpaceOnUse"><stop offset=".056" style="stop-color:#b63538"/><stop offset="1" style="stop-color:#752a3f"/></linearGradient><path fill="url(#s)" d="M428.802 238.662a1123.365 1123.365 0 0 0-24.962 19.27A4222.265 4222.265 0 0 0 246.9 194.56a4708.359 4708.359 0 0 0-9.816-34.61 4232.728 4232.728 0 0 1 191.718 78.71z"/><linearGradient id="t" x1="345.095" x2="333.981" y1="218.044" y2="211.782" gradientUnits="userSpaceOnUse"><stop offset="0" style="stop-color:#8d3335;stop-opacity:0"/><stop offset=".949" style="stop-color:#571729"/></linearGradient><path fill="url(#t)" opacity=".7" d="m329.812 196.652-15.676 23.012 19.019-21.642-.506-6.052z"/><linearGradient id="u" x1="338.542" x2="311.251" y1="203.582" y2="207.609" gradientUnits="userSpaceOnUse"><stop offset=".056" style="stop-color:#de2d35"/><stop offset="1" style="stop-color:#a22c2f"/></linearGradient><path fill="url(#u)" d="m314.136 219.664 20.875-20.879-2.362-6.815.506 6.052z"/><linearGradient id="v" x1="386.067" x2="379.545" y1="229.149" y2="225.475" gradientUnits="userSpaceOnUse"><stop offset="0" style="stop-color:#8d3335;stop-opacity:0"/><stop offset=".949" style="stop-color:#571729"/></linearGradient><path fill="url(#v)" opacity=".7" d="M377.099 216.597 367.9 230.1l11.161-12.699-.297-3.552z"/><linearGradient id="w" x1="382.222" x2="366.207" y1="220.663" y2="223.026" gradientUnits="userSpaceOnUse"><stop offset=".056" style="stop-color:#de2d35"/><stop offset="1" style="stop-color:#a22c2f"/></linearGradient><path fill="url(#w)" d="m367.9 230.1 12.25-12.252-1.386-3.999.297 3.552z"/><linearGradient id="x" x1="98.947" x2="80.439" y1="195.902" y2="231.627" gradientTransform="rotate(5.94 -581.202 317.721)" gradientUnits="userSpaceOnUse"><stop offset="0" style="stop-color:#8d3335;stop-opacity:0"/><stop offset=".949" style="stop-color:#571729"/></linearGradient><path fill="url(#x)" opacity=".7" d="m76.376 307.624-27.037 32.903 29.235-27.099 10.565-2.471z"/><linearGradient id="y" x1="67.67" x2="65.393" y1="244.102" y2="273.855" gradientTransform="rotate(5.94 -581.202 317.721)" gradientUnits="userSpaceOnUse"><stop offset=".056" style="stop-color:#de2d35"/><stop offset="1" style="stop-color:#a22c2f"/></linearGradient><path fill="url(#y)" d="m79.745 316.38-30.406 24.147 29.235-27.099 10.565-2.471z"/><linearGradient id="z" x1="86.011" x2="67.317" y1="254.457" y2="290.541" gradientUnits="userSpaceOnUse"><stop offset="0" style="stop-color:#8d3335;stop-opacity:0"/><stop offset=".949" style="stop-color:#571729"/></linearGradient><path fill="url(#z)" opacity=".7" d="m67.203 281.032-33.599 49.066L70.3 289.325l12.699-3.538z"/><linearGradient id="A" x1="55.348" x2="60.345" y1="291.557" y2="319.282" gradientUnits="userSpaceOnUse"><stop offset=".056" style="stop-color:#de2d35"/><stop offset="1" style="stop-color:#a22c2f"/></linearGradient><path fill="url(#A)" d="m33.604 330.098 37.873-37.882 11.522-6.429-12.699 3.538z"/><linearGradient id="B" x1="477.53" x2="450.744" y1="408.846" y2="425.453" gradientTransform="rotate(-.865 -405.564 487.907)" gradientUnits="userSpaceOnUse"><stop offset="0" style="stop-color:#8d3335;stop-opacity:0"/><stop offset=".949" style="stop-color:#571729"/></linearGradient><path fill="url(#B)" opacity=".7" d="m436.906 415.215-33.949 45.871 40.708-47.319-6.282-11.93z"/><linearGradient id="C" x1="447.946" x2="409.544" y1="433.073" y2="448.517" gradientTransform="rotate(-.865 -405.564 487.907)" gradientUnits="userSpaceOnUse"><stop offset=".056" style="stop-color:#de2d35"/><stop offset="1" style="stop-color:#a22c2f"/></linearGradient><path fill="url(#C)" d="m447.161 412.972-44.204 48.114 40.708-47.319-6.282-11.93z"/></svg>